<mxfile host="app.diagrams.net" agent="Mozilla/5.0 (Windows NT 10.0; Win64; x64) AppleWebKit/537.36 (KHTML, like Gecko) Chrome/137.0.0.0 Safari/537.36" version="27.1.6">
  <diagram name="第1頁" id="_MaqUpJ7oEheKCF0Ef28">
    <mxGraphModel dx="854" dy="513" grid="1" gridSize="10" guides="1" tooltips="1" connect="1" arrows="1" fold="1" page="1" pageScale="1" pageWidth="1169" pageHeight="827" math="0" shadow="0">
      <root>
        <mxCell id="0" />
        <mxCell id="1" parent="0" />
        <mxCell id="VXFmxYhwd_XNbxnLM9Wa-7" value="" style="triangle;whiteSpace=wrap;html=1;rounded=1;rotation=-90;fillColor=#E6FFCC;" parent="1" vertex="1">
          <mxGeometry x="335" y="295" width="50" height="210" as="geometry" />
        </mxCell>
        <mxCell id="VXFmxYhwd_XNbxnLM9Wa-5" value="" style="endArrow=none;dashed=1;html=1;rounded=0;strokeWidth=2;strokeColor=default;" parent="1" edge="1">
          <mxGeometry width="50" height="50" relative="1" as="geometry">
            <mxPoint x="160" y="370" as="sourcePoint" />
            <mxPoint x="560" y="370" as="targetPoint" />
          </mxGeometry>
        </mxCell>
        <mxCell id="VXFmxYhwd_XNbxnLM9Wa-26" value="&lt;div&gt;&lt;span style=&quot;font-size: 16px; font-family: 標楷體; background-color: transparent; color: light-dark(rgb(0, 0, 0), rgb(255, 255, 255));&quot;&gt;利用既有&lt;/span&gt;&lt;/div&gt;&lt;div&gt;&lt;span style=&quot;font-size: 16px; font-family: 標楷體; background-color: transparent; color: light-dark(rgb(0, 0, 0), rgb(255, 255, 255));&quot;&gt;平台開發技術、&lt;/span&gt;&lt;/div&gt;&lt;div&gt;&lt;span style=&quot;font-size: 16px; font-family: 標楷體; background-color: transparent; color: light-dark(rgb(0, 0, 0), rgb(255, 255, 255));&quot;&gt;補充數位布片&lt;/span&gt;&lt;/div&gt;&lt;div&gt;&lt;span style=&quot;font-size: 16px; font-family: 標楷體; background-color: transparent; color: light-dark(rgb(0, 0, 0), rgb(255, 255, 255));&quot;&gt;永續資料&lt;/span&gt;&lt;/div&gt;" style="rounded=1;whiteSpace=wrap;html=1;fillColor=#CCE5FF;" parent="1" vertex="1">
          <mxGeometry x="195" y="260" width="120" height="100" as="geometry" />
        </mxCell>
        <mxCell id="VXFmxYhwd_XNbxnLM9Wa-27" value="&lt;span style=&quot;font-size:12.0pt;line-height:&amp;lt;br/&amp;gt;115%;font-family:&amp;quot;Times New Roman&amp;quot;,serif;mso-fareast-font-family:標楷體;&amp;lt;br/&amp;gt;mso-bidi-theme-font:minor-bidi;mso-ansi-language:EN-US;mso-fareast-language:&amp;lt;br/&amp;gt;ZH-TW;mso-bidi-language:AR-SA&quot; lang=&quot;EN-US&quot;&gt;Made2Flow&lt;/span&gt;&lt;span style=&quot;font-size: 16px; font-family: 標楷體; background-color: transparent; color: light-dark(rgb(0, 0, 0), rgb(255, 255, 255));&quot;&gt;提供碳排預估數據、專業機構負責實際進行碳盤查&lt;/span&gt;" style="rounded=1;whiteSpace=wrap;html=1;fillColor=#FFCCCC;" parent="1" vertex="1">
          <mxGeometry x="405" y="260" width="120" height="100" as="geometry" />
        </mxCell>
        <mxCell id="VXFmxYhwd_XNbxnLM9Wa-34" value="&lt;font style=&quot;font-size: 20px; background-color: rgb(212, 225, 245);&quot; face=&quot;標楷體&quot;&gt;&lt;b&gt;深耕運用&lt;/b&gt;&lt;/font&gt;" style="text;html=1;align=center;verticalAlign=middle;whiteSpace=wrap;rounded=0;" parent="1" vertex="1">
          <mxGeometry x="210" y="230" width="90" height="30" as="geometry" />
        </mxCell>
        <mxCell id="vy8ZsTHYOeh1eDnl10wQ-1" value="" style="edgeStyle=none;curved=1;rounded=0;orthogonalLoop=1;jettySize=auto;html=1;fontSize=12;startSize=8;endSize=8;" parent="1" source="VXFmxYhwd_XNbxnLM9Wa-36" target="VXFmxYhwd_XNbxnLM9Wa-27" edge="1">
          <mxGeometry relative="1" as="geometry" />
        </mxCell>
        <mxCell id="VXFmxYhwd_XNbxnLM9Wa-36" value="&lt;font style=&quot;font-size: 20px; background-color: rgb(255, 204, 204);&quot; face=&quot;標楷體&quot;&gt;&lt;b&gt;創新探索&lt;/b&gt;&lt;/font&gt;" style="text;html=1;align=center;verticalAlign=middle;whiteSpace=wrap;rounded=0;" parent="1" vertex="1">
          <mxGeometry x="420" y="230" width="90" height="30" as="geometry" />
        </mxCell>
        <mxCell id="VXFmxYhwd_XNbxnLM9Wa-30" value="&lt;font style=&quot;font-size: 22px; background-color: rgb(230, 255, 204);&quot; face=&quot;標楷體&quot;&gt;&lt;b&gt;平衡機制&lt;/b&gt;&lt;/font&gt;" style="text;html=1;align=center;verticalAlign=middle;whiteSpace=wrap;rounded=0;" parent="1" vertex="1">
          <mxGeometry x="350" y="287.1428571428571" width="20" height="25.71428571428571" as="geometry" />
        </mxCell>
        <mxCell id="O1jYIusFtQCa2vRuLjXF-1" value="&lt;p data-pm-slice=&quot;1 1 []&quot;&gt;&lt;font face=&quot;標楷體&quot;&gt;&lt;span style=&quot;font-size: 16px;&quot;&gt;迭代的永續服務&lt;/span&gt;&lt;/font&gt;&lt;/p&gt;" style="text;strokeColor=none;align=center;fillColor=none;html=1;verticalAlign=middle;whiteSpace=wrap;rounded=0;" parent="1" vertex="1">
          <mxGeometry x="302.5" y="396" width="115" height="30" as="geometry" />
        </mxCell>
      </root>
    </mxGraphModel>
  </diagram>
</mxfile>
